<mxfile host="app.diagrams.net" modified="2023-03-27T19:47:50.611Z" agent="Mozilla/5.0 (X11; Linux x86_64) AppleWebKit/537.36 (KHTML, like Gecko) Chrome/111.0.0.0 Safari/537.36" version="21.1.1" etag="5wafB3eyw4AiUIKIEk-W" type="github">
  <diagram name="PÃ¡gina-1" id="QN-l5Cvf_ZFzQhAqVFd9">
    <mxGraphModel>
      <root>
        <mxCell id="0" />
        <mxCell id="1" parent="0" />
      </root>
    </mxGraphModel>
  </diagram>
</mxfile>
